<?xml version="1.0" encoding="UTF-8" standalone="no"?>
<!-- Created with Inkscape (http://www.inkscape.org/) -->

<svg
   version="1.1"
   id="svg1"
   width="332"
   height="90.618919"
   viewBox="0 0 332 90.618919"
   xml:space="preserve"
   xmlns="http://www.w3.org/2000/svg"
   xmlns:svg="http://www.w3.org/2000/svg"><defs
     id="defs1" /><g
     id="g1"
     transform="translate(485.7464,-68.589043)"><path
       style="fill:#000000"
       d="m -189.7464,158.32258 c -4.07622,-1.11737 -4.53018,-1.54855 -4.82044,-4.57847 -0.31882,-3.32803 -0.30367,-3.34066 3,-2.5 1.82624,0.46471 7.00011,0.84493 11.49748,0.84493 6.69926,0 8.67606,-0.37261 10.93822,-2.06179 5.17296,-3.8627 6.60627,-6.78913 7.14925,-14.59676 0.49983,-7.18736 0.47016,-7.30552 -1.41358,-5.62959 -2.96623,2.63901 -8.87734,4.78814 -13.16959,4.78814 -13.14794,0 -21.53196,-9.49748 -21.62768,-24.5 -0.0647,-10.145053 1.93488,-15.98764 7.38082,-21.565727 7.64248,-7.827935 18.33723,-8.783745 26.0132,-2.324847 l 3.03861,2.556826 0.98211,-2.583126 c 0.75724,-1.991712 1.67462,-2.583127 4.00685,-2.583127 h 3.02475 v 26.950781 c 0,15.82195 -0.45413,29.06832 -1.09977,32.07884 -1.34169,6.25608 -5.71743,11.55958 -11.73291,14.22054 -5.38594,2.38249 -17.14146,3.13518 -23.16732,1.48338 z m 18.5,-30.8526 c 2.2,-0.60935 5.2375,-1.98749 6.75,-3.06252 l 2.75,-1.95461 v -13.24334 c 0,-11.924201 -0.20211,-13.460283 -2.029,-15.421228 -5.08056,-5.453336 -13.58862,-6.645487 -19.55011,-2.739364 -6.47737,4.244133 -9.0006,20.563152 -4.53337,29.319632 2.10821,4.13245 4.17351,5.7913 9.05408,7.27226 3.48833,1.0585 3.08727,1.06757 7.5584,-0.17083 z m -312.5,5.11906 c -1.86992,-1.86992 -2,-3.33333 -2,-22.5 V 89.589039 h 4.5 4.5 v 17.934901 c 0,18.63804 0.38585,21.0664 3.94293,24.8151 l 2.13498,2.25 h -5.53895 c -4.20562,0 -6.0204,-0.48144 -7.53896,-2 z m 33,-1.29926 v -3.55623 l -5.25,0.5328 c -4.38274,0.44479 -5.70428,0.17307 -8,-1.64483 l -2.75,-2.17764 V 107.05852 89.673168 l 7.75,-0.292065 7.75,-0.292064 v -4 -4 l -7.75,-0.292064 -7.75,-0.292065 v -5.957935 -5.957936 h 21.92857 c 18.60174,0 22.16698,0.238405 23.5,1.571429 1.33453,1.334527 1.57143,4.930157 1.57143,23.850776 0,13.997396 -0.42307,23.542946 -1.1381,25.678576 -3.12537,9.33468 -10.1111,13.97671 -22.1119,14.69337 l -7.75,0.46282 z m 63.5,1.89675 c -6.64837,-2.93467 -6.94945,-3.91616 -7.5,-24.44946 l -0.5,-18.648031 -4.75,-0.304791 c -4.50079,-0.288801 -4.75,-0.456436 -4.75,-3.195209 0,-2.738773 0.24921,-2.906408 4.75,-3.195209 l 4.75,-0.304791 0.29569,-6.75 0.29569,-6.75 h 3.95431 3.95431 v 7 7 h 7.5 7.5 v 3 3 h -7.5 -7.5 v 17.000001 c 0,20.30846 0.31284,21 9.5,21 5.39924,0 5.5,0.053 5.5,2.89301 0,1.71556 -0.64379,3.14006 -1.58179,3.5 -2.72823,1.04692 -10.78783,0.58626 -13.91821,-0.79552 z m 30,-0.48753 c -4.62763,-2.13579 -7.91663,-5.42189 -9.43339,-9.42506 -0.61511,-1.62345 -1.06661,-10.61872 -1.06661,-21.25 V 83.589039 h 3.40287 3.40286 l 0.37103,17.750001 c 0.41597,19.90015 1.25476,22.94346 6.97686,25.31363 4.20111,1.74016 10.38386,1.46944 13.5307,-0.59245 4.48736,-2.94022 5.31568,-6.90431 5.31568,-25.43906 V 83.589039 h 4 4 v 16.557181 c 0,19.10536 -0.99919,24.37534 -5.46904,28.8452 -5.58981,5.5898 -17.22017,7.31249 -25.03096,3.70758 z m 80.84024,0.93243 c -12.91354,-3.07694 -19.8236,-17.1437 -16.01098,-32.59348 2.59715,-10.524399 8.06845,-16.409045 17.14835,-18.443894 13.83445,-3.100364 24.52239,6.772759 24.52239,22.652874 v 4.29488 l -17.25,0.27362 -17.25,0.27361 0.3453,3.48395 c 0.47813,4.82416 2.54702,8.44647 6.38961,11.18721 2.83782,2.02409 4.44283,2.32884 12.26509,2.32884 4.95,0 10.0125,-0.36782 11.25,-0.81739 2.05639,-0.74705 2.25,-0.52064 2.25,2.63129 0,3.2462 -0.26083,3.51435 -4.44282,4.56739 -4.92866,1.24105 -14.35296,1.32006 -19.21694,0.1611 z m 17.1455,-31.01932 c 1.06494,-1.7231 -1.38341,-8.578305 -3.91224,-10.95402 -3.45366,-3.244547 -10.09975,-3.790237 -14.26917,-1.171599 -3.83312,2.407425 -6.05057,5.583723 -6.91478,9.904819 l -0.63955,3.19773 h 12.56598 c 7.10078,0 12.82858,-0.42489 13.16976,-0.97693 z m -60.48574,5.91357 V 83.462322 l 3.24181,0.313359 c 2.33468,0.225674 3.33044,0.873001 3.55855,2.313358 0.75487,4.766535 1.17651,4.91475 4.58454,1.611559 2.9437,-2.853144 10.55398,-6.111559 14.27403,-6.111559 0.89791,0 1.34107,1.321797 1.34107,4 0,3.543516 -0.27095,4 -2.37427,4 -3.89766,0 -10.90724,2.89552 -13.86156,5.725937 l -2.76417,2.648245 v 17.812909 17.81291 h -4 -4 z m 75,0.0634 V 83.589041 h 3.03138 c 1.81963,0 3.21871,0.599607 3.5,1.5 0.25774,0.825 0.68904,2.199882 0.95845,3.055293 0.39959,1.268759 1.18258,1.006657 4.25,-1.422672 9.32208,-7.382873 22.7467,-5.979762 27.25036,2.848148 1.81516,3.558014 2.00981,5.880387 2.00981,23.97939 v 20.03984 h -3.5 -3.5 l -0.0596,-15.25 c -0.076,-19.45501 -0.86781,-24.430653 -4.36646,-27.440069 -4.67481,-4.021099 -12.3076,-2.605426 -18.82393,3.491323 l -2.75001,2.572929 v 18.312907 18.31291 h -4 -4 z m -241,-32.345011 c 0,-5.015212 2.18243,-7.654988 6.32874,-7.654988 2.59821,0 2.67126,0.164088 2.67126,6 v 6 h -4.5 -4.5 z"
       id="path1" /></g></svg>
