<?xml version="1.0" encoding="UTF-8" standalone="no"?>
<!-- Created with Inkscape (http://www.inkscape.org/) -->

<svg
   version="1.1"
   id="svg1"
   width="332"
   height="90.618919"
   viewBox="0 0 332 90.618919"
   xml:space="preserve"
   xmlns="http://www.w3.org/2000/svg"
   xmlns:svg="http://www.w3.org/2000/svg"><defs
     id="defs1"><filter
       style="color-interpolation-filters:sRGB"
       id="filter46949"
       x="0"
       y="0"
       width="1"
       height="1"><feColorMatrix
         type="hueRotate"
         values="180"
         result="color1"
         id="feColorMatrix46948" /><feColorMatrix
         values="-1 0 0 0 1 0 -1 0 0 1 0 0 -1 0 1 -0.21 -0.72 -0.07 1 0 "
         result="color2"
         id="feColorMatrix46949" /></filter></defs><g
     id="g1"
     transform="translate(365.77942,-39.086189)"><path
       style="fill:#000000;filter:url(#filter46949)"
       d="m -69.779418,128.81973 c -4.07622,-1.11737 -4.53018,-1.54855 -4.82044,-4.57847 -0.31882,-3.32803 -0.30367,-3.34066 3,-2.5 1.82624,0.46471 7.00011,0.84493 11.49748,0.84493 6.69926,0 8.67606,-0.37261 10.93822,-2.06179 5.17296,-3.8627 6.60627,-6.78913 7.14925,-14.59676 0.49983,-7.187359 0.47016,-7.305519 -1.41358,-5.62959 -2.96623,2.63901 -8.87734,4.78814 -13.16959,4.78814 -13.14794,0 -21.53196,-9.49748 -21.62768,-24.5 -0.0647,-10.145052 1.93488,-15.987639 7.38082,-21.565726 7.64248,-7.827935 18.33723,-8.783745 26.0132,-2.324847 l 3.03861,2.556826 0.98211,-2.583126 c 0.75724,-1.991712 1.67462,-2.583127 4.00685,-2.583127 h 3.02475 v 26.950779 c 0,15.821949 -0.45413,29.068321 -1.09977,32.078841 -1.34169,6.25608 -5.71743,11.55958 -11.73291,14.22054 -5.38594,2.38249 -17.14146,3.13518 -23.16732,1.48338 z m 18.5,-30.852603 c 2.2,-0.609351 5.2375,-1.987483 6.75,-3.062518 l 2.75,-1.954607 V 79.706657 c 0,-11.924197 -0.20211,-13.460279 -2.029,-15.421224 -5.08056,-5.453336 -13.58862,-6.645487 -19.55011,-2.739364 -6.47737,4.244133 -9.0006,20.563152 -4.53337,29.319635 2.10821,4.132443 4.17351,5.791296 9.05408,7.272259 3.48833,1.0585 3.08727,1.067564 7.5584,-0.170836 z m -312.500002,5.119063 c -1.86992,-1.86992 -2,-3.333333 -2,-22.5 v -20.5 h 4.5 4.5 v 17.9349 c 0,18.638042 0.38585,21.0664 3.94293,24.8151 l 2.13498,2.25 h -5.53895 c -4.20562,0 -6.0204,-0.48144 -7.53896,-2 z m 33,-1.29926 v -3.556234 l -5.25,0.532803 c -4.38274,0.444788 -5.70428,0.173074 -8,-1.644833 l -2.75,-2.177636 V 77.555674 60.170319 l 7.75,-0.292065 7.75,-0.292064 v -4 -4 l -7.75,-0.292064 -7.75,-0.292065 V 45.044126 39.08619 h 21.92857 c 18.60174,0 22.16698,0.238405 23.5,1.571429 1.33453,1.334527 1.57143,4.930157 1.57143,23.850776 0,13.997395 -0.42307,23.54295 -1.1381,25.678572 -3.12537,9.334688 -10.1111,13.976713 -22.1119,14.693373 l -7.75,0.46282 z m 63.5,1.89675 c -6.64837,-2.93467 -6.94945,-3.916162 -7.5,-24.449457 l -0.5,-18.648033 -4.75,-0.304791 c -4.50079,-0.288801 -4.75,-0.456436 -4.75,-3.195209 0,-2.738773 0.24921,-2.906408 4.75,-3.195209 l 4.75,-0.304791 0.29569,-6.75 0.29569,-6.75 h 3.95431 3.95431 v 7 7 h 7.5 7.5 v 3 3 h -7.5 -7.5 v 17 c 0,20.308459 0.31284,21 9.5,21 5.39924,0 5.5,0.053 5.5,2.89301 0,1.71556 -0.64379,3.14006 -1.58179,3.5 -2.72823,1.04692 -10.78783,0.58626 -13.91821,-0.79552 z m 30,-0.48753 c -4.62763,-2.13579 -7.91663,-5.421886 -9.43339,-9.42506 -0.61511,-1.623448 -1.06661,-10.618724 -1.06661,-21.25 v -18.4349 h 3.40287 3.40286 l 0.37103,17.75 c 0.41597,19.900146 1.25476,22.94346 6.97686,25.313633 4.20111,1.740156 10.38386,1.46944 13.5307,-0.59245 4.48736,-2.940225 5.31568,-6.904314 5.31568,-25.439064 V 54.08619 h 4 4 v 16.55718 c 0,19.105358 -0.99919,24.375341 -5.46904,28.845197 -5.58981,5.589803 -17.22017,7.312493 -25.03096,3.707583 z m 80.84024,0.93243 c -12.91354,-3.07694 -19.8236,-17.1437 -16.01098,-32.593483 2.59715,-10.524395 8.06845,-16.409041 17.14835,-18.44389 13.83445,-3.100364 24.52239,6.772759 24.52239,22.65287 v 4.294885 l -17.25,0.273614 -17.25,0.273614 0.3453,3.48395 c 0.47813,4.824161 2.54702,8.44647 6.38961,11.187212 2.83782,2.024086 4.44283,2.328838 12.26509,2.328838 4.95,0 10.0125,-0.367824 11.25,-0.817388 2.05639,-0.747053 2.25,-0.520638 2.25,2.631285 0,3.246203 -0.26083,3.514353 -4.44282,4.567393 -4.92866,1.24105 -14.35296,1.32006 -19.21694,0.1611 z m 17.1455,-31.019317 c 1.06494,-1.723103 -1.38341,-8.578307 -3.91224,-10.954022 -3.45366,-3.244547 -10.09975,-3.790237 -14.26917,-1.171599 -3.83312,2.407425 -6.05057,5.583723 -6.91478,9.904822 l -0.63955,3.197726 h 12.56598 c 7.10078,0 12.82858,-0.424886 13.16976,-0.976927 z m -60.48574,5.913569 V 53.959473 l 3.24181,0.313359 c 2.33468,0.225674 3.33044,0.873001 3.55855,2.313358 0.75487,4.766535 1.17651,4.91475 4.58454,1.611559 2.9437,-2.853144 10.55398,-6.111559 14.27403,-6.111559 0.89791,0 1.34107,1.321797 1.34107,4 0,3.543516 -0.27095,4 -2.37427,4 -3.89766,0 -10.90724,2.89552 -13.86156,5.725937 l -2.76417,2.648245 v 17.812909 17.812909 h -4 -4 z m 75,0.06336 v -25 h 3.03138 c 1.81963,0 3.21871,0.599607 3.5,1.5 0.25774,0.825 0.68904,2.199882 0.95845,3.055293 0.39959,1.268759 1.18258,1.006657 4.25,-1.422672 9.32208,-7.382873 22.746702,-5.979762 27.250362,2.848148 1.81516,3.558014 2.00981,5.880387 2.00981,23.979393 v 20.039836 h -3.5 -3.5 l -0.0596,-15.249998 c -0.076,-19.455011 -0.86781,-24.430654 -4.36646,-27.44007 -4.67481,-4.021099 -12.307602,-2.605426 -18.823932,3.491323 l -2.75001,2.572929 v 18.312909 18.312907 h -4 -4 z m -241,-32.345012 c 0,-5.015212 2.18243,-7.654988 6.32874,-7.654988 2.59821,0 2.67126,0.164088 2.67126,6 v 6 h -4.5 -4.5 z"
       id="path1" /></g></svg>
